<svg xmlns="http://www.w3.org/2000/svg"  version="1.1" x="0px" y="0px" viewBox="0 0 100 100" width="40" height="40">

<path d="M50,94.3c-14.2,0-27.2-6.5-35.6-17.9c-0.9-1.2-0.6-2.8,0.5-3.7c1.2-0.9,2.8-0.6,3.7,0.5C26.1,83.3,37.5,89,50,89    c21.6,0,39.1-17.5,39.1-39.1S71.6,10.8,50,10.8c-13.9,0-26.4,7.1-33.5,19c-0.8,1.3-2.4,1.7-3.7,0.9c-1.3-0.8-1.7-2.4-0.9-3.7 C20,13.5,34.3,5.5,50,5.5c24.5,0,44.4,19.9,44.4,44.4S74.5,94.3,50,94.3z"/>

<path d="M12.4,35.1c-1.2,0-2.3-0.8-2.7-2c-0.4-1.5,0.4-3,1.9-3.5l16-4.6c1.5-0.4,3,0.4,3.5,1.9c0.4,1.5-0.4,3-1.9,3.5l-16,4.6    C12.9,35.1,12.6,35.1,12.4,35.1z"/>

<path d="M12.4,35.1c-1.2,0-2.3-0.8-2.7-2L5.1,17c-0.4-1.5,0.4-3,1.9-3.5c1.5-0.4,3,0.4,3.5,1.9l4.6,16.1c0.4,1.5-0.4,3-1.9,3.5    C12.9,35.1,12.6,35.1,12.4,35.1z"/>

<path d="M36.6,55.5c-0.7,0-1.3-0.2-1.9-0.7c-1.2-1-1.3-2.8-0.2-4l14.7-16.7c1-1.2,2.8-1.3,4-0.2c1.2,1,1.3,2.8,0.2,4L38.7,54.6   C38.2,55.2,37.4,55.5,36.6,55.5z"/>

<path d="M66,55.5c-0.8,0-1.5-0.3-2.1-0.9L49.2,37.9c-1-1.2-0.9-2.9,0.3-4c1.2-1,2.9-0.9,3.9,0.2l14.7,16.7c1,1.2,0.9,2.9-0.3,4   C67.3,55.3,66.7,55.5,66,55.5z"/>

<polygon points="51.3,39 41.8,49.8 41.8,49.8 41.8,61 48.8,61 48.8,53.2 54.2,53.1 54.2,61 60.9,61 60.9,50.4 60.9,49.8"/>
</svg>